<svg width="32" viewBox="0 0 32 32" xmlns="http://www.w3.org/2000/svg" height="32" fill="none"><path d="M23.024 5.673C21.28 3.98 19.4 2.623 17.856 2.437a2.102 2.102 0 0 0-.263-.02H7.438a.6.6 0 0 0-.436.18.62.62 0 0 0-.18.436v25.75a.616.616 0 0 0 .616.615h18.364a.6.6 0 0 0 .434-.18.602.602 0 0 0 .182-.435V11.648c-.036-1.99-1.594-4.158-3.394-5.975Zm2.16 22.49H8.052V3.647h9.542v.002c.416-.025.775.386 1.05 1.326.25.895.313 2.062.312 2.87.002.594-.027.992-.027.992l-.05.652.656.007c.003 0 1.516.018 3 .355 1.426.308 2.54.922 2.645 1.617.005.063.006.123.005.182Z" class="fills" style="fill: rgb(0, 0, 0);"/><path d="M13.125 13c.207 0 .375.168.375.375v.375h6v-.375a.375.375 0 0 1 .75 0v.375H21a1.5 1.5 0 0 1 1.5 1.5v8.25A1.5 1.5 0 0 1 21 25h-9a1.5 1.5 0 0 1-1.5-1.5v-8.25a1.5 1.5 0 0 1 1.5-1.5h.75v-.375c0-.207.168-.375.375-.375Zm7.466 2.25h-8.182c-.225 0-.409.168-.409.375v.75c0 .207.183.375.409.375h8.182c.225 0 .409-.168.409-.375v-.75c0-.207-.183-.375-.409-.375Zm-1.466 3a.375.375 0 0 0-.375.375v.75c0 .207.168.375.375.375h.75a.375.375 0 0 0 .375-.375v-.75a.375.375 0 0 0-.375-.375Z" class="fills" style="fill: rgb(0, 0, 0);"/></svg>
