<?xml version="1.0" standalone="no"?>
<!DOCTYPE svg PUBLIC "-//W3C//DTD SVG 20010904//EN"
 "http://www.w3.org/TR/2001/REC-SVG-20010904/DTD/svg10.dtd">
<svg version="1.0" xmlns="http://www.w3.org/2000/svg"
 width="700.000000pt" height="700.000000pt" viewBox="0 0 700.000000 700.000000"
 preserveAspectRatio="xMidYMid meet">
<metadata>
Created by potrace 1.14, written by Peter Selinger 2001-2017
</metadata>
<g transform="translate(0.000000,700.000000) scale(0.100000,-0.100000)"
fill="#000000" stroke="none">
<path d="M3278 6995 c-1 -1 -39 -5 -83 -9 -553 -43 -1163 -256 -1630 -569 -69
-47 -288 -210 -314 -235 -10 -9 -51 -46 -91 -82 -306 -273 -567 -608 -765
-985 -120 -229 -237 -537 -291 -765 -50 -213 -72 -349 -91 -550 -16 -166 -9
-570 12 -714 3 -17 7 -49 9 -71 10 -83 18 -131 26 -165 5 -19 12 -48 14 -65
53 -298 209 -711 383 -1014 213 -372 471 -677 829 -981 167 -142 464 -331 704
-447 306 -148 687 -263 1019 -309 25 -3 57 -8 71 -10 193 -30 696 -24 907 10
21 4 54 9 73 11 19 3 46 7 60 10 14 2 39 7 55 10 194 37 460 117 660 200 845
350 1526 1023 1885 1865 78 184 163 445 196 605 16 75 54 300 60 350 4 33 9
76 11 95 8 71 10 517 3 595 -17 172 -22 220 -25 225 -2 3 -6 30 -10 60 -3 30
-10 71 -15 90 -5 19 -12 51 -15 70 -11 63 -64 263 -94 357 -102 310 -258 629
-439 893 -56 82 -185 253 -217 286 -5 6 -34 39 -64 73 -185 211 -483 467 -720
616 -378 239 -804 411 -1216 491 -22 4 -42 8 -45 9 -3 0 -30 5 -60 9 -30 4
-64 10 -75 12 -11 2 -49 6 -85 10 -36 3 -78 8 -95 11 -32 5 -531 13 -537 8z
m512 -259 c19 -3 58 -8 85 -10 65 -7 112 -14 210 -31 109 -20 114 -21 165 -35
25 -7 54 -14 65 -16 87 -17 319 -96 464 -158 278 -120 597 -315 795 -486 113
-97 154 -135 252 -235 350 -356 613 -792 767 -1270 33 -103 90 -322 101 -390
14 -87 18 -112 22 -135 2 -14 6 -52 10 -85 3 -33 8 -71 11 -85 8 -43 11 -482
3 -555 -4 -38 -11 -99 -14 -135 -16 -169 -84 -468 -151 -660 -75 -216 -190
-462 -297 -634 -50 -81 -164 -249 -192 -283 -269 -334 -505 -553 -818 -757
-64 -42 -120 -76 -123 -76 -4 0 -19 -8 -33 -19 -44 -31 -260 -136 -382 -187
-174 -71 -438 -151 -585 -178 -101 -19 -146 -26 -190 -31 -27 -4 -60 -8 -71
-10 -122 -19 -499 -26 -649 -12 -157 15 -181 18 -265 33 -131 22 -134 23 -294
64 -132 33 -311 91 -371 120 -11 5 -49 21 -85 36 -36 14 -117 52 -181 84 -641
323 -1159 852 -1472 1504 -121 250 -243 636 -272 856 -5 38 -17 123 -21 143
-25 139 -24 699 1 797 2 8 6 38 10 65 36 302 151 671 309 986 250 498 625 926
1086 1238 63 43 138 90 165 106 28 15 55 31 60 35 18 14 269 138 335 165 328
134 678 220 991 241 52 4 95 8 97 9 6 6 426 -3 462 -9z"/>
<path d="M3318 6506 c-1 -2 -37 -6 -78 -10 -158 -13 -358 -48 -480 -82 -30 -9
-62 -18 -70 -19 -42 -9 -168 -52 -270 -92 -764 -301 -1380 -922 -1685 -1697
-86 -220 -148 -469 -191 -766 -14 -96 -13 -563 1 -674 35 -273 84 -484 163
-701 283 -777 870 -1402 1629 -1734 203 -89 547 -186 728 -207 33 -3 62 -8 65
-9 41 -24 701 -24 740 0 3 2 32 6 65 10 33 3 78 10 100 15 22 5 51 11 65 14
14 3 34 7 45 10 118 27 169 41 286 80 832 276 1508 921 1832 1746 88 226 141
427 176 670 27 187 31 249 31 450 0 183 -2 204 -25 390 -105 824 -554 1573
-1235 2060 -392 280 -858 463 -1340 525 -25 3 -61 8 -80 11 -39 5 -466 14
-472 10z m388 -250 c50 -4 102 -9 115 -11 13 -2 44 -6 69 -9 25 -3 56 -8 70
-11 14 -3 41 -8 60 -11 19 -3 71 -15 115 -26 674 -165 1252 -575 1640 -1162
192 -291 341 -657 401 -980 2 -16 6 -32 8 -35 2 -3 7 -28 10 -56 3 -27 13
-102 20 -165 10 -80 14 -182 11 -335 -5 -243 -5 -248 -42 -455 -199 -1123
-1083 -2015 -2197 -2220 -56 -10 -130 -21 -166 -25 -36 -3 -85 -9 -110 -11
-111 -13 -422 -5 -540 12 -134 20 -177 28 -276 50 -782 174 -1472 723 -1834
1459 -82 168 -142 320 -184 471 -31 114 -72 310 -81 394 -4 36 -9 74 -12 85
-3 11 -6 119 -8 240 -3 197 1 279 20 410 3 22 8 60 11 84 17 139 89 398 161
581 194 491 530 918 973 1237 276 199 641 361 970 432 125 26 146 30 205 37
28 3 55 7 62 9 7 2 61 7 120 11 59 3 109 7 110 8 4 3 216 -2 299 -8z"/>
<path d="M3458 5835 c-34 -19 -41 -42 -44 -140 -2 -114 16 -149 85 -160 23 -4
70 26 78 50 11 34 12 165 1 165 -7 0 -7 4 0 13 11 14 1 47 -20 65 -24 20 -71
23 -100 7z"/>
<path d="M3949 5652 c-17 -2 -52 -30 -98 -76 -80 -83 -89 -114 -48 -161 33
-39 77 -42 118 -8 57 47 119 117 125 140 15 55 -39 113 -97 105z"/>
<path d="M2986 5628 c-30 -27 -39 -65 -22 -95 18 -35 118 -134 144 -144 52
-20 112 25 112 84 0 25 -14 45 -73 104 -82 82 -115 92 -161 51z"/>
<path d="M3373 5480 c-117 -42 -219 -145 -251 -256 -43 -148 -13 -285 85 -395
98 -108 238 -155 375 -123 158 37 268 146 304 302 44 187 -48 374 -224 458
-75 36 -209 42 -289 14z m195 -161 c95 -31 156 -119 156 -226 0 -196 -241
-297 -380 -158 -91 91 -93 234 -5 324 59 61 153 85 229 60z"/>
<path d="M2809 5172 c-35 -17 -52 -61 -38 -101 17 -49 43 -59 153 -57 94 1 99
2 122 29 31 37 31 81 -1 112 -26 27 -26 27 -134 29 -44 1 -85 -4 -102 -12z"/>
<path d="M3981 5174 c-52 -22 -63 -101 -20 -140 26 -23 169 -34 169 -12 0 7
10 14 23 15 12 0 16 -1 10 -4 -23 -8 -14 -25 10 -18 68 21 89 94 40 143 -25
25 -27 25 -34 7 -7 -19 -8 -19 -8 1 -1 19 -7 20 -82 20 -45 0 -93 -6 -108 -12z"/>
<path d="M3114 4812 c-12 -2 -54 -36 -93 -76 -58 -60 -71 -80 -71 -106 0 -44
49 -93 87 -86 15 2 31 5 34 5 8 1 75 68 117 115 37 43 41 81 12 118 -20 26
-48 36 -86 30z"/>
<path d="M3834 4810 c-30 -12 -54 -49 -54 -82 0 -28 60 -104 124 -157 41 -35
92 -33 123 5 40 51 32 78 -49 159 -74 74 -105 90 -144 75z"/>
<path d="M3440 4635 c-22 -24 -24 -34 -24 -130 -1 -96 1 -106 23 -129 33 -35
88 -36 121 -1 19 21 23 36 26 112 1 48 -2 102 -7 119 -17 56 -98 73 -139 29z"/>
<path d="M2355 4331 c-52 -15 -95 -73 -169 -226 -160 -330 -158 -635 5 -879
27 -41 49 -77 49 -80 0 -7 -36 -91 -52 -120 -37 -69 -117 -320 -152 -479 -32
-144 -35 -165 -42 -327 l-6 -136 26 -31 c29 -34 43 -38 161 -48 160 -12 314
-64 440 -147 66 -44 82 -60 94 -93 39 -115 88 -238 119 -300 31 -64 112 -194
137 -221 76 -85 142 -145 195 -179 126 -81 215 -105 365 -101 325 8 592 276
750 754 24 73 33 88 69 114 148 107 343 171 551 180 41 1 56 7 83 34 30 30 37
57 34 124 -14 300 -77 563 -207 868 l-48 112 40 58 c51 72 76 121 103 201 30
89 35 130 34 266 0 97 -6 139 -27 218 -31 112 -79 228 -139 331 -59 100 -73
111 -147 108 -43 -2 -285 -163 -520 -345 l-84 -65 -81 39 c-314 147 -558 147
-872 0 l-80 -38 -130 99 c-143 110 -340 252 -394 285 -40 25 -76 33 -105 24z
m215 -374 c74 -55 177 -133 227 -174 161 -128 168 -129 283 -64 161 91 328
138 459 128 123 -10 259 -57 396 -136 34 -20 73 -34 92 -34 37 0 29 -5 306
203 113 85 219 163 236 173 l31 18 31 -68 c63 -136 88 -253 83 -381 -2 -76
-31 -182 -62 -230 -14 -22 -15 -21 -56 45 -70 114 -143 141 -208 76 -48 -49
-45 -89 15 -185 197 -321 336 -688 372 -983 4 -27 8 -65 11 -82 2 -18 1 -34
-4 -34 -4 -1 -20 -3 -37 -5 -111 -12 -301 -74 -405 -132 -70 -38 -183 -119
-211 -149 -16 -18 -41 -75 -67 -155 -100 -312 -257 -521 -438 -583 -63 -21
-155 -26 -215 -10 -204 54 -381 285 -484 630 -30 100 -42 116 -135 184 -147
109 -326 181 -530 215 -14 3 -30 5 -37 5 -13 1 -11 33 8 156 21 129 42 216 81
335 63 195 152 386 264 571 71 117 79 139 63 184 -14 37 -45 62 -90 70 -49 8
-92 -22 -141 -100 -22 -36 -44 -65 -48 -65 -9 0 -46 89 -58 135 -14 58 -7 247
12 310 30 100 97 246 110 238 6 -3 72 -51 146 -106z"/>
<path d="M2982 2764 c-108 -45 -83 -225 40 -294 54 -30 128 -32 166 -3 41 30
53 61 49 121 -9 124 -149 221 -255 176z"/>
<path d="M3913 2760 c-53 -24 -89 -59 -113 -111 -23 -52 -25 -88 -6 -134 31
-73 124 -91 211 -41 89 52 133 179 86 245 -12 17 -32 36 -43 42 -34 18 -93 18
-135 -1z"/>
<path d="M3320 1809 c-42 -9 -77 -46 -84 -88 -11 -74 40 -131 118 -131 35 0
36 -1 36 -35 0 -42 23 -90 49 -104 82 -44 171 10 171 104 0 34 1 35 36 35 44
0 86 24 106 59 28 49 6 125 -44 152 -24 13 -333 19 -388 8z"/>
</g>
</svg>
