<svg xmlns="http://www.w3.org/2000/svg" xml:space="preserve" width="100%" height="100%" viewBox="0 0 500 500">
    <path fill="#000" d="M250 0c137.997 0 250.001 112.038 250.001 250 0 137.96-112.004 249.999-250 249.999C112.004 499.999 0 387.96 0 249.999 0 112.04 112.004 0 250 0Zm0 10.282c-132.354 0-239.841 107.396-239.841 239.717 0 132.323 107.487 239.72 239.842 239.72 132.356 0 239.843-107.397 239.843-239.72 0-132.32-107.487-239.717-239.843-239.717Z"/>
    <path fill="#000" d="M250 23.496c123.506 0 223.777 101.492 223.777 226.503 0 125.012-100.27 226.505-223.776 226.505-123.505 0-223.775-101.493-223.775-226.505 0-125.011 100.27-226.503 223.775-226.503Zm0 10.28C132.104 33.777 36.384 130.664 36.384 250c0 119.337 95.72 216.223 213.618 216.223 117.9 0 213.618-96.886 213.618-216.223 0-119.336-95.719-216.222-213.618-216.222Z"/>
    <path fill="#000" d="M163.75 274.626c-4.012-4.05-11.45-13.318-13.35-27.85-1.684-12.895.95-30.138 15.001-51.627a4.042 4.042 0 0 1 5.37-1.327c9.585 5.424 33.912 24.486 41.384 30.39 6.037-3.524 21.953-11.83 37.847-11.83 15.905 0 31.821 8.306 37.858 11.819 7.517-5.904 32.138-25.024 43.012-30.47 1.854-.939 4.115-.298 5.234 1.487 13.43 21.488 15.713 38.732 13.803 51.627-2.148 14.52-9.643 23.765-13.656 27.793 9.078 18.238 19.545 45.745 19.545 75.334 0 2.277-1.808 4.108-4.058 4.108-26.316 0-43.43 13.788-47.218 17.151-1.243 4.875-6.262 22.656-16.854 37.313-8.67 12.003-20.992 21.82-37.666 21.82-16.674 0-28.995-9.817-37.666-21.82-10.592-14.657-15.611-32.438-16.854-37.313-3.787-3.363-20.89-17.151-47.218-17.151-2.25 0-4.058-1.83-4.058-4.108 0-29.6 10.479-57.119 19.545-75.346Zm163.742.72c-5.934-11.418-10.84-18.318-10.84-18.318a4.153 4.153 0 0 1 .927-5.744c1.82-1.327 4.352-.904 5.674.939 0 0 3.889 5.446 8.987 14.737 3.346-3.879 8.105-10.996 9.631-21.328 1.606-10.847-.384-25.07-10.66-42.736-13.96 8.238-40.536 29.52-40.536 29.52a4.037 4.037 0 0 1-4.76.206s-17.94-12.025-35.913-12.025c-17.963 0-35.914 12.037-35.914 12.037a4.037 4.037 0 0 1-4.759-.206s-26.248-21.02-39.248-29.418c-10.75 17.644-13.045 31.843-11.62 42.68 1.344 10.286 6.013 17.38 9.314 21.258 5.098-9.28 8.975-14.725 8.975-14.725 1.323-1.843 3.855-2.266 5.675-.939a4.153 4.153 0 0 1 .927 5.744s-4.985 7.003-10.954 18.57c-.045.092-.09.172-.147.252-8.467 16.5-18.923 42.13-19.861 70.117 31.12 1.545 49.603 20.15 49.603 20.15.554.56.938 1.259 1.108 2.025 0 0 4.386 19.75 15.792 35.55 7.2 9.967 17.261 18.457 31.109 18.457 13.848 0 23.908-8.49 31.11-18.456 11.405-15.802 15.791-35.55 15.791-35.55a4.156 4.156 0 0 1 1.108-2.026s18.494-18.605 49.603-20.15c-.938-28.124-11.485-53.88-20.008-70.357-.034-.091-.08-.172-.114-.263Zm-49.806 34.51c3.64-3.684 8.693-4.565 11.259-1.956 2.577 2.608 1.718 7.712-1.933 11.396-3.64 3.696-8.682 4.565-11.259 1.957-2.577-2.598-1.707-7.712 1.933-11.397Zm-53.763 0c3.651 3.685 4.51 8.8 1.933 11.397-2.566 2.608-7.619 1.739-11.259-1.957-3.64-3.684-4.51-8.788-1.933-11.396 2.577-2.61 7.619-1.728 11.259 1.956Zm37.383 66.524c2.238 0 4.058 1.843 4.058 4.108 0 2.266-1.82 4.108-4.058 4.108h-7.246v7.334c0 2.266-1.82 4.108-4.058 4.108-2.238 0-4.058-1.842-4.058-4.108v-7.334h-7.246c-2.239 0-4.059-1.842-4.059-4.108 0-2.265 1.82-4.108 4.059-4.108h22.608Zm-38.234-209.55-.278.28a3.87 3.87 0 0 1-2.831 1.237c-2.134 0-3.89-1.778-3.89-3.938 0-1.08.438-2.114 1.212-2.857l.285-.29 5.678-5.747.01-.009c.045-.047.092-.095.139-.141l.542-.55a3.876 3.876 0 0 1 5.502 0c1.509 1.528 1.509 4.043 0 5.57l-.542.548a7.096 7.096 0 0 1-.14.142l-5.687 5.756Zm30.86-67.248v.955c0 2.16-1.756 3.938-3.89 3.938-2.135 0-3.891-1.778-3.891-3.938V91.42l.001-.432.001-.058a3.961 3.961 0 0 1 1.137-2.646 3.876 3.876 0 0 1 5.503 0 3.961 3.961 0 0 1 1.138 2.704v8.594Zm22.879 12.855-.667.675a3.876 3.876 0 0 1-5.502 0c-1.509-1.528-1.509-4.042 0-5.57l.666-.672 5.703-5.773.303-.305.041-.04a3.865 3.865 0 0 1 2.652-1.058c2.135 0 3.891 1.778 3.891 3.938a3.964 3.964 0 0 1-1.084 2.727l-.301.306-5.702 5.772Zm-5.502 48.622-.667-.674c-1.509-1.527-1.509-4.042 0-5.57a3.876 3.876 0 0 1 5.502 0l.666.675 5.703 5.772.3.307a3.964 3.964 0 0 1 1.085 2.727c0 2.16-1.756 3.937-3.89 3.937a3.865 3.865 0 0 1-2.694-1.097l-.303-.305-5.702-5.772Zm-25.157 15.858v-8.75l-.001-.776c0-2.16 1.756-3.938 3.89-3.938 2.135 0 3.891 1.778 3.891 3.938v9.116c0 .25-.002.396-.002.397a3.965 3.965 0 0 1-1.137 2.9 3.876 3.876 0 0 1-5.503 0 3.966 3.966 0 0 1-1.138-2.887Zm37.856-39.016-.942.001c-2.134 0-3.89-1.778-3.89-3.938s1.756-3.938 3.89-3.938h9.007l.426.001.058.001a3.869 3.869 0 0 1 2.614 1.151c1.51 1.528 1.51 4.042 0 5.57a3.869 3.869 0 0 1-2.672 1.152h-8.491Zm-56.953 5.717a25.15 25.15 0 0 1-1.92-9.654c0-3.414.685-6.678 1.923-9.659a24.908 24.908 0 0 1 5.373-8.168 24.594 24.594 0 0 1 7.276-5.083 24.34 24.34 0 0 1 10.335-2.3c3.364.004 6.581.697 9.52 1.945a24.59 24.59 0 0 1 8.09 5.438 24.932 24.932 0 0 1 5.702 9.024 25.18 25.18 0 0 1-.313 18.423 24.917 24.917 0 0 1-5.388 8.206 24.568 24.568 0 0 1-8.102 5.452 24.328 24.328 0 0 1-9.51 1.932c-3.365 0-6.583-.69-9.523-1.938a24.559 24.559 0 0 1-8.088-5.446 24.907 24.907 0 0 1-5.375-8.172Zm7.178-16.282a17.767 17.767 0 0 0 0 13.256c1.745 4.215 5.097 7.607 9.26 9.374a17.17 17.17 0 0 0 12.402.27c4.48-1.676 8.106-5.204 9.95-9.647 1.799-4.46 1.7-9.55-.298-13.942-1.814-3.895-5.022-7.015-8.957-8.685a17.163 17.163 0 0 0-13.097 0c-4.164 1.767-7.515 5.16-9.26 9.374Zm-13.325 6.628c0 2.16-1.757 3.938-3.891 3.938h-9.007c-2.134 0-3.89-1.778-3.89-3.938s1.756-3.938 3.89-3.938h9.007c2.134 0 3.89 1.778 3.89 3.938Zm3.03-20.852-6.368-6.446c-1.51-1.528-1.51-4.042 0-5.57a3.876 3.876 0 0 1 5.502 0l6.369 6.447c1.509 1.527 1.509 4.041 0 5.57a3.876 3.876 0 0 1-5.502 0Z"/>
  </svg>
